<?xml version="1.0" encoding="UTF-8"?>
<svg width="18px" height="18px" viewBox="0 0 18 18" version="1.1" xmlns="http://www.w3.org/2000/svg" xmlns:xlink="http://www.w3.org/1999/xlink">
    <!-- Generator: Sketch 52.6 (67491) - http://www.bohemiancoding.com/sketch -->
    <title>add</title>
    <desc>Created with Sketch.</desc>
    <g id="Layout-app" stroke="none" stroke-width="1" fill="none" fill-rule="evenodd">
        <g id="7.-Home/mapa" transform="translate(-317.000000, -176.000000)" fill="#727272">
            <g id="Group" transform="translate(302.000000, 161.000000)">
                <g id="Material/Icons-black/search" transform="translate(14.000000, 14.000000)">
                    <path d="M13.5445,7.53341667 L12.7505,7.53341667 L12.4745,7.80741667 C13.4495,8.94441667 14.0425,10.4184167 14.0425,12.0334167 C14.0425,15.6234167 11.1325,18.5334167 7.5425,18.5334167 C3.9525,18.5334167 1.0425,15.6234167 1.0425,12.0334167 C1.0425,8.44341667 3.9525,5.53341667 7.5425,5.53341667 C9.1575,5.53341667 10.6305,6.12541667 11.7675,7.09941667 L12.0435,6.82541667 L12.0435,6.03341667 L17.0415,1.04241667 L18.5325,2.53341667 L13.5445,7.53341667 L13.5445,7.53341667 Z M7.5425,7.53341667 C5.0565,7.53341667 3.0425,9.54741667 3.0425,12.0334167 C3.0425,14.5184167 5.0565,16.5334167 7.5425,16.5334167 C10.0275,16.5334167 12.0425,14.5184167 12.0425,12.0334167 C12.0425,9.54741667 10.0275,7.53341667 7.5425,7.53341667 L7.5425,7.53341667 Z" id="Shape" transform="translate(9.787500, 9.787917) scale(1, -1) translate(-9.787500, -9.787917) "></path>
                </g>
            </g>
        </g>
    </g>
</svg>